<svg width="106" height="88" viewBox="0 0 106 88" fill="none" xmlns="http://www.w3.org/2000/svg">
<path d="M53.1247 0C24.7035 0 2.43683 36.08 0.330078 66.5536C9.24898 81.9982 30.7566 87.8038 53.1255 87.8038C75.4928 87.8038 97.0016 81.9982 105.916 66.5532C103.809 36.08 81.5451 0 53.1251 0" fill="#B6DEFF"/>
<path d="M98.4892 59.2947C98.4892 59.2947 92.212 45.7535 85.8317 37.8533C79.4469 29.9498 71.6497 21.344 67.0395 21.344C62.4318 21.344 49.5512 44.0992 43.6421 44.0992C37.7318 44.0992 34.6602 33.7838 27.3939 33.7838C20.1246 33.7838 8.57555 58.6589 8.57555 58.6589L7.79297 62.8759C7.79297 62.8759 11.8052 80.625 53.7804 80.625C95.7572 80.625 99.112 63.1671 99.112 63.1671L98.4896 59.2943" fill="#66CC66"/>
<path d="M44.2989 53.8101C37.7799 53.8101 34.4381 47.3923 32.6261 43.4307C30.9968 39.8619 30.7148 34.2275 26.0918 34.0696C26.546 33.8899 26.9833 33.7837 27.3932 33.7837C34.6596 33.7837 37.7311 44.0992 43.6414 44.0992C49.5505 44.0992 62.4312 21.3435 67.0388 21.3435C67.9071 21.3435 68.8851 21.6492 69.9464 22.1929C69.1613 22.0896 68.1547 22.1615 67.3792 22.9378C65.8898 24.4243 52.3694 53.8101 44.2989 53.8101Z" fill="#17AD49"/>
</svg>
