<svg width="27" height="21" viewBox="0 0 27 21" fill="none" xmlns="http://www.w3.org/2000/svg">
<path d="M25.3125 0.00244141H0.9375C0.418945 0.00244141 0 0.421387 0 0.939941V19.6899C0 20.2085 0.418945 20.6274 0.9375 20.6274H25.3125C25.8311 20.6274 26.25 20.2085 26.25 19.6899V0.939941C26.25 0.421387 25.8311 0.00244141 25.3125 0.00244141ZM24.1406 3.24853V18.5181H2.10938V3.24853L1.30078 2.61865L2.45215 1.13916L3.70605 2.11475H22.5469L23.8008 1.13916L24.9521 2.61865L24.1406 3.24853ZM22.5469 2.11182L13.125 9.43604L3.70312 2.11182L2.44922 1.13623L1.29785 2.61572L2.10645 3.24561L12.1143 11.0269C12.4021 11.2505 12.7561 11.3718 13.1206 11.3718C13.4851 11.3718 13.8391 11.2505 14.127 11.0269L24.1406 3.24853L24.9492 2.61865L23.7979 1.13916L22.5469 2.11182Z" fill="#EF2779"/>
</svg>
